<svg width="20" height="20" viewBox="0 0 20 20" fill="none" xmlns="http://www.w3.org/2000/svg">
<path fill-rule="evenodd" clip-rule="evenodd" d="M10.0003 4.1665C8.24195 4.1665 6.66202 4.9394 5.40948 5.84054C4.15037 6.74642 3.15019 7.83337 2.53363 8.58192C1.84979 9.41217 1.84979 10.5875 2.53363 11.4178C3.15019 12.1663 4.15037 13.2533 5.40948 14.1592C6.66202 15.0603 8.24195 15.8332 10.0003 15.8332C11.7585 15.8332 13.3384 15.0603 14.591 14.1592C15.8501 13.2533 16.8503 12.1663 17.4668 11.4178C18.1507 10.5875 18.1507 9.41217 17.4668 8.58192C16.8503 7.83338 15.8501 6.74642 14.591 5.84055C13.3384 4.9394 11.7585 4.1665 10.0003 4.1665ZM10.0001 8.33317C9.07958 8.33317 8.33342 9.07934 8.33342 9.99984C8.33342 10.9203 9.07958 11.6665 10.0001 11.6665C10.9206 11.6665 11.6667 10.9203 11.6667 9.99984C11.6667 9.07934 10.9206 8.33317 10.0001 8.33317ZM6.66675 9.99984C6.66675 8.15889 8.15913 6.6665 10.0001 6.6665C11.841 6.6665 13.3334 8.15889 13.3334 9.99984C13.3334 11.8408 11.841 13.3332 10.0001 13.3332C8.15913 13.3332 6.66675 11.8408 6.66675 9.99984Z" fill="black"/>
</svg>
