<svg width="20" height="20" viewBox="0 0 20 20" fill="none" xmlns="http://www.w3.org/2000/svg">
<g clip-path="url(#clip0_1_9086)">
<path fill-rule="evenodd" clip-rule="evenodd" d="M4.30305 10C4.30305 9.3649 4.40853 8.75601 4.5968 8.1849L1.30145 5.66846C0.65921 6.97246 0.297363 8.44179 0.297363 10C0.297363 11.5569 0.658765 13.0253 1.30012 14.3285L4.59368 11.8071C4.40719 11.2387 4.30305 10.632 4.30305 10Z" fill="#FBBC05"/>
<path fill-rule="evenodd" clip-rule="evenodd" d="M10.0891 4.22217C11.4688 4.22217 12.715 4.71106 13.6942 5.51106L16.5427 2.66661C14.8069 1.1555 12.5815 0.222168 10.0891 0.222168C6.2196 0.222168 2.89399 2.43506 1.30151 5.66839L4.59685 8.18483C5.35615 5.87995 7.52056 4.22217 10.0891 4.22217Z" fill="#EB4335"/>
<path fill-rule="evenodd" clip-rule="evenodd" d="M10.0891 15.7776C7.52056 15.7776 5.35615 14.1198 4.59685 11.8149L1.30151 14.3309C2.89399 17.5647 6.2196 19.7776 10.0891 19.7776C12.4774 19.7776 14.7575 18.9296 16.4688 17.3407L13.3408 14.9225C12.4582 15.4785 11.3469 15.7776 10.0891 15.7776Z" fill="#34A853"/>
<path fill-rule="evenodd" clip-rule="evenodd" d="M19.4357 9.99995C19.4357 9.42217 19.3467 8.79995 19.2132 8.22217H10.0891V11.9999H15.341C15.0784 13.2879 14.3636 14.2782 13.3408 14.9226L16.4688 17.3408C18.2665 15.6724 19.4357 13.1871 19.4357 9.99995Z" fill="#4285F4"/>
</g>
<defs>
<clipPath id="clip0_1_9086">
<rect width="20" height="20" fill="white"/>
</clipPath>
</defs>
</svg>
