<svg width="16" height="16" viewBox="0 0 16 16" fill="none" xmlns="http://www.w3.org/2000/svg">
<g clip-path="url(#clip0_1_9791)">
<mask id="mask0_1_9791" style="mask-type:luminance" maskUnits="userSpaceOnUse" x="0" y="0" width="16" height="16">
<path d="M16 0H0V16H16V0Z" fill="white"/>
</mask>
<g mask="url(#mask0_1_9791)">
<g opacity="0.4">
<path d="M12.7189 10.125C12.6804 10.125 12.642 10.1285 12.6043 10.1356L12.3159 10.1894C11.3218 10.3747 10.305 10.4687 9.2938 10.4687H8.15635H7.90637H6.76894C5.75771 10.4687 4.74099 10.3748 3.74698 10.1894L3.45843 10.1356C3.42067 10.1285 3.38229 10.125 3.34387 10.125C2.56847 10.125 1.93762 10.7558 1.93762 11.5313C1.93762 12.2725 2.17944 13.0896 2.58447 13.7167C3.10596 14.5241 3.85287 14.9688 4.68763 14.9688C5.43184 14.9688 6.04807 14.702 6.5192 14.1761C6.89656 13.7548 7.12597 13.2319 7.32842 12.7706C7.63312 12.0764 7.79411 11.7961 8.03664 11.7332C8.30238 11.7969 8.47038 12.083 8.78323 12.7933C8.98471 13.2507 9.21304 13.7691 9.58791 14.1857C10.0554 14.7053 10.6672 14.9688 11.4064 14.9688C13.2845 14.9688 14.1252 13.4149 14.1252 11.875V11.5313C14.1252 10.7558 13.4943 10.125 12.7189 10.125ZM6.18378 12.2683C5.77726 13.1947 5.50736 13.7187 4.68763 13.7187C3.75829 13.7187 3.18762 12.4447 3.18762 11.5313C3.18762 11.4574 3.23917 11.3953 3.30817 11.3791L3.5178 11.4182C4.47896 11.5975 5.46 11.6973 6.43861 11.7157C6.34698 11.8965 6.26477 12.0839 6.18378 12.2683ZM12.8752 11.875C12.8752 12.3075 12.7692 13.7187 11.4064 13.7187C10.5962 13.7187 10.3292 13.2023 9.9272 12.2895C9.84275 12.0977 9.7569 11.9027 9.66029 11.7149C10.6269 11.6948 11.5957 11.5953 12.5451 11.4182L12.7546 11.3791C12.8236 11.3953 12.8752 11.4574 12.8752 11.5313V11.875Z" fill="white"/>
<path d="M15.98 7.78135C15.8938 7.44739 15.5532 7.24652 15.2189 7.33236C15.1942 7.33874 12.6911 7.96876 8.15639 7.96876C6.22749 7.96876 4.61062 7.85475 3.38566 7.72297C3.49754 7.23383 3.77649 6.09236 4.1822 4.96099C4.94074 2.84566 5.60326 2.28125 5.87514 2.28125C5.98237 2.28125 6.23124 2.32463 6.69335 2.61513C7.49885 3.12148 8.54508 3.12515 9.35872 2.62454C9.90092 2.29088 10.1319 2.28125 10.1564 2.28125C10.4727 2.28125 11.2299 2.98554 12.0609 5.62519C12.1645 5.95441 12.5154 6.13725 12.8447 6.03366C13.174 5.93001 13.3568 5.57908 13.2532 5.24983C12.9062 4.14761 12.5345 3.25056 12.1485 2.58372C11.5522 1.55356 10.8819 1.03125 10.1564 1.03125C9.75697 1.03125 9.28177 1.20419 8.70365 1.55994C8.29225 1.813 7.76428 1.81185 7.3586 1.55684C6.79599 1.20316 6.31072 1.03125 5.87514 1.03125C5.22458 1.03125 4.61713 1.45078 4.06976 2.27819C3.7026 2.83316 3.34458 3.59377 3.00561 4.53903C2.53682 5.84631 2.235 7.13457 2.13932 7.56681C1.25938 7.43974 0.776785 7.33108 0.765315 7.32844C0.429158 7.25091 0.0936891 7.46077 0.0161578 7.79697C-0.0614987 8.13332 0.148252 8.46889 0.484596 8.5465C0.603567 8.57396 3.45178 9.21876 8.15639 9.21876C12.8694 9.21876 15.4255 8.57015 15.532 8.54252C15.8659 8.45594 16.0662 8.11532 15.98 7.78135Z" fill="white"/>
</g>
</g>
</g>
<defs>
<clipPath id="clip0_1_9791">
<rect width="16" height="16" fill="white"/>
</clipPath>
</defs>
</svg>
