<svg width="241" height="240" viewBox="0 0 241 240" fill="none" xmlns="http://www.w3.org/2000/svg">
<g clip-path="url(#clip0_2005_774)">
<g clip-path="url(#clip1_2005_774)">
<path d="M139.028 75.3605C139.892 75.1205 139.556 77.0885 139.796 77.9525C141.572 85.1045 146.324 92.7845 148.676 101.376C149.396 104.064 150.308 108.24 150.356 113.712C141.284 111.168 131.396 106.704 122.708 98.7365C121.94 98.0165 121.22 97.3445 120.5 96.6245C122.66 96.2885 126.596 95.3765 130.484 92.4965C136.388 88.0805 138.212 82.0325 138.356 81.6005C138.452 81.3125 138.5 80.7365 138.836 79.9205C139.22 79.0085 139.22 78.8645 139.316 78.5285C139.748 76.8965 138.98 75.3605 139.028 75.3605Z" fill="#747677" stroke="#747677" stroke-width="2" stroke-miterlimit="10"/>
<path d="M129.188 80.208C129.236 80.784 129.284 82.368 128.276 84C127.076 85.968 125.156 86.64 124.676 86.784C123.812 87.072 121.748 87.696 119.252 87.024C117.572 86.592 116.42 85.776 115.748 85.248C120.212 83.568 124.724 81.888 129.188 80.208Z" fill="#747677" stroke="#747677" stroke-width="2" stroke-miterlimit="10"/>
<path d="M101.348 82.9923C101.876 84.6243 103.556 89.1843 108.164 92.5923C114.164 97.0083 120.692 96.2403 122.132 96.0483C123.86 95.7123 128.996 94.5603 133.364 89.9523C137.636 85.4403 138.548 80.3523 138.788 78.6243C138.932 75.0243 138.932 71.0403 138.644 66.7683C138.308 61.9203 137.732 57.5523 136.964 53.6643C134.9 52.2723 131.828 50.6883 127.892 49.9203C117.188 47.9043 108.644 53.9523 106.772 55.2963C106.532 61.0083 106.244 66.7203 106.004 72.4323L101.348 82.9923Z" stroke="#747677" stroke-width="2" stroke-miterlimit="10"/>
<path d="M144.405 81.5522C140.469 78.0002 134.517 71.6162 130.773 62.0162C129.237 58.1282 128.421 54.4802 127.941 51.3602C124.821 55.4882 121.653 59.5682 118.533 63.6962C117.717 64.7522 116.757 66.2402 115.029 67.8242C112.053 70.5122 108.885 71.9042 106.677 72.5762C106.437 73.9202 105.957 75.7442 105.045 77.7122C103.893 80.1122 102.453 81.8402 101.397 82.9922C102.405 84.9602 103.413 86.8802 104.421 88.8482L104.565 98.3042L88.7729 107.904L74.8529 114.864C74.1329 110.736 73.5089 103.824 75.3809 95.6642C76.9169 88.9442 79.6049 83.8082 81.6689 80.5442C84.9329 75.6002 88.1969 70.6562 91.4609 65.7122C94.9169 60.6722 98.3729 55.6322 101.877 50.5442C103.221 48.6242 108.405 41.8562 117.189 40.6082C119.685 40.2722 121.893 40.4162 123.717 40.7522C124.485 40.8962 127.941 41.4722 131.973 43.6322C135.717 45.6482 138.309 48.1442 139.941 50.0642C141.285 51.9842 142.629 54.2882 143.733 57.0242C147.909 67.4882 145.701 77.2322 144.405 81.5522Z" fill="#747677"/>
<path d="M24.0683 201.408C22.6763 201.12 17.9723 210.48 16.3883 221.952C15.8603 225.984 15.4283 232.224 16.6763 240.048C46.0043 240.048 75.3803 240.048 104.708 240.048C104.852 237.552 104.996 235.104 105.14 232.608C101.348 232.512 95.9723 232.176 89.5883 231.168C81.3803 229.92 75.5723 228.144 64.2443 224.64C51.7163 220.752 45.3323 218.784 41.2523 216.048C35.5883 212.256 27.6203 205.008 26.7083 204.048C26.2283 203.568 25.7003 203.04 25.2203 202.56C24.1643 201.456 24.1643 201.408 24.0683 201.408Z" fill="#747677" stroke="#747677" stroke-width="2" stroke-miterlimit="10"/>
<path d="M118.243 195.168C117.235 194.88 116.755 195.024 113.251 194.496C111.811 194.304 109.699 193.92 105.763 193.104C101.443 192.192 97.2674 191.28 91.6994 189.696C84.6914 187.68 79.4114 186.192 72.8354 182.976C69.4754 181.344 66.8354 179.76 65.0114 178.608C66.4514 176.208 67.9394 173.808 69.3794 171.408C71.0114 168.768 72.5954 166.128 74.2274 163.488C65.2994 157.536 56.3714 151.632 47.4434 145.68C41.9714 150.288 37.7474 154.512 34.7714 157.776C28.5314 164.592 24.6434 168.912 22.0994 175.728C20.8034 179.136 19.0754 183.648 19.6034 189.216C20.5154 198.528 27.1874 204.768 31.6514 208.8C40.8194 217.104 49.8914 219.984 64.2434 224.592C82.2914 230.352 96.2114 231.504 101.491 231.84C109.123 232.32 115.651 232.176 120.499 231.84C122.419 223.248 124.387 214.608 126.307 206.016C123.763 198.24 120.691 195.84 118.243 195.168Z" stroke="#747677" stroke-width="2" stroke-miterlimit="10"/>
<path d="M155.013 151.584C155.637 156.096 163.125 157.968 163.557 164.016C163.797 167.52 161.541 170.592 159.525 172.704C173.445 172.944 187.365 173.184 201.285 173.424C200.517 168.912 199.029 163.152 195.957 156.912C190.053 144.912 181.509 137.664 176.469 134.064C158.565 142.416 154.485 147.936 155.013 151.584Z" stroke="#747677" stroke-width="2" stroke-miterlimit="10"/>
<path d="M141.236 196.128C129.668 196.512 113.684 195.744 95.5402 190.752C83.2522 187.344 73.0282 182.88 65.0602 178.608C68.1322 173.568 71.2042 168.528 74.2762 163.488L44.6602 143.808C49.4122 136.704 57.4282 126.72 69.8602 118.08C76.6762 113.376 83.2042 110.16 88.7242 107.904C90.6442 109.92 93.9082 112.896 98.7082 115.2C104.564 117.984 109.892 118.416 112.868 118.416C115.364 118.608 121.7 118.8 128.084 115.008C132.02 112.704 134.468 109.776 135.812 107.904C141.764 109.776 149.108 112.704 156.932 117.264C166.484 122.832 173.588 129.024 178.58 134.064C171.092 141.888 163.556 149.712 156.068 157.536C154.532 156.864 152.516 155.808 150.452 154.128C148.916 152.88 147.764 151.584 146.948 150.48C145.028 165.696 143.156 180.912 141.236 196.128Z" fill="#747677"/>
<path d="M214.244 240C171.716 240 129.188 240 86.6602 240V231.888H112.484L120.5 172.08H223.844C220.628 194.736 217.46 217.344 214.244 240Z" fill="#5E6060"/>
</g>
</g>
<defs>
<clipPath id="clip0_2005_774">
<rect width="240" height="240" fill="white" transform="translate(0.5)"/>
</clipPath>
<clipPath id="clip1_2005_774">
<rect width="240" height="240" fill="white" transform="translate(0.5)"/>
</clipPath>
</defs>
</svg>
