<svg width="15" height="15" viewBox="0 0 15 15" fill="none" xmlns="http://www.w3.org/2000/svg">
<path d="M7.5 1.64062C4.26914 1.64062 1.64062 4.26914 1.64062 7.5C1.64062 10.7309 4.26914 13.3594 7.5 13.3594C10.7309 13.3594 13.3594 10.7309 13.3594 7.5C13.3594 4.26914 10.7309 1.64062 7.5 1.64062ZM7.5 4.04297C7.65065 4.04297 7.79792 4.08764 7.92319 4.17134C8.04845 4.25504 8.14608 4.374 8.20374 4.51319C8.26139 4.65238 8.27647 4.80553 8.24708 4.95329C8.21769 5.10105 8.14514 5.23678 8.03862 5.3433C7.93209 5.44983 7.79636 5.52238 7.6486 5.55177C7.50085 5.58116 7.34769 5.56608 7.2085 5.50842C7.06932 5.45077 6.95035 5.35314 6.86665 5.22788C6.78296 5.10261 6.73828 4.95534 6.73828 4.80469C6.73828 4.60267 6.81853 4.40892 6.96138 4.26607C7.10423 4.12322 7.29798 4.04297 7.5 4.04297ZM9.375 10.6641H5.85938V9.72656H7.14844V7.14844H6.21094V6.21094H8.08594V9.72656H9.375V10.6641Z" fill="#F3F3F3"/>
</svg>
