<svg width="16" height="17" viewBox="0 0 16 17" fill="none" xmlns="http://www.w3.org/2000/svg">
<path fill-rule="evenodd" clip-rule="evenodd" d="M2.8 7.17778V4.91111C2.8 3.6086 3.34786 2.35944 4.32305 1.43843C5.29823 0.51742 6.62088 0 8 0C9.37912 0 10.7018 0.51742 11.677 1.43843C12.6522 2.35944 13.2 3.6086 13.2 4.91111V7.17778H13.6C14.9255 7.17778 16 8.19256 16 9.44444V14.7333C16 15.9852 14.9255 17 13.6 17H2.4C1.07452 17 0 15.9852 0 14.7333V9.44444C0 8.19256 1.07452 7.17778 2.4 7.17778H2.8ZM6.0201 3.04121C6.5452 2.54528 7.25736 2.26667 8 2.26667C8.74264 2.26667 9.4548 2.54528 9.97992 3.04121C10.505 3.53713 10.8 4.20976 10.8 4.91111V7.17778H5.2V4.91111C5.2 4.20976 5.495 3.53713 6.0201 3.04121Z" fill="#737574"/>
</svg>
