<svg width="24" height="24" viewBox="0 0 24 24" fill="none" xmlns="http://www.w3.org/2000/svg">
<g clip-path="url(#clip0_1_3217)">
<mask id="mask0_1_3217" style="mask-type:luminance" maskUnits="userSpaceOnUse" x="4" y="4" width="16" height="16">
<path d="M20 4H4V20H20V4Z" fill="white"/>
</mask>
<g mask="url(#mask0_1_3217)">
<path d="M11.9997 4C12.3679 4 12.6663 4.29848 12.6663 4.66667V6.66667C12.6663 7.03485 12.3679 7.33333 11.9997 7.33333C11.6315 7.33333 11.333 7.03485 11.333 6.66667V4.66667C11.333 4.29848 11.6315 4 11.9997 4Z" fill="#F3F3F3"/>
<path fill-rule="evenodd" clip-rule="evenodd" d="M8.66699 11.9998C8.66699 10.1589 10.1594 8.6665 12.0003 8.6665C13.8413 8.6665 15.3337 10.1589 15.3337 11.9998C15.3337 13.8408 13.8413 15.3332 12.0003 15.3332C10.1594 15.3332 8.66699 13.8408 8.66699 11.9998ZM12.0003 9.99984C10.8957 9.99984 10.0003 10.8952 10.0003 11.9998C10.0003 13.1044 10.8957 13.9998 12.0003 13.9998C13.1049 13.9998 14.0003 13.1044 14.0003 11.9998C14.0003 10.8952 13.1049 9.99984 12.0003 9.99984Z" fill="#F3F3F3"/>
<path d="M17.6568 7.28602C17.9171 7.02567 17.9171 6.60356 17.6568 6.34321C17.3965 6.08286 16.9743 6.08286 16.714 6.34321L15.2997 7.75743C15.0394 8.01778 15.0394 8.43989 15.2997 8.70024C15.5601 8.96058 15.9822 8.96058 16.2426 8.70024L17.6568 7.28602Z" fill="#F3F3F3"/>
<path d="M20.0003 12.0002C20.0003 12.3684 19.7019 12.6668 19.3337 12.6668H17.3337C16.9655 12.6668 16.667 12.3684 16.667 12.0002C16.667 11.632 16.9655 11.3335 17.3337 11.3335H19.3337C19.7019 11.3335 20.0003 11.632 20.0003 12.0002Z" fill="#F3F3F3"/>
<path d="M16.7141 17.6568C16.9744 17.9171 17.3965 17.9171 17.6569 17.6568C17.9172 17.3965 17.9172 16.9743 17.6569 16.714L16.2427 15.2998C15.9823 15.0394 15.5602 15.0394 15.2998 15.2998C15.0395 15.5601 15.0395 15.9823 15.2998 16.2426L16.7141 17.6568Z" fill="#F3F3F3"/>
<path d="M11.9997 19.9998C11.6315 19.9998 11.333 19.7014 11.333 19.3332V17.3332C11.333 16.965 11.6315 16.6665 11.9997 16.6665C12.3679 16.6665 12.6663 16.965 12.6663 17.3332V19.3332C12.6663 19.7014 12.3679 19.9998 11.9997 19.9998Z" fill="#F3F3F3"/>
<path d="M6.34273 16.714C6.08237 16.9743 6.08237 17.3965 6.34273 17.6568C6.60307 17.9171 7.02519 17.9171 7.28553 17.6568L8.69975 16.2426C8.96009 15.9822 8.96009 15.5601 8.69975 15.2997C8.4394 15.0394 8.01729 15.0394 7.75694 15.2997L6.34273 16.714Z" fill="#F3F3F3"/>
<path d="M4 12.0002C4 11.632 4.29848 11.3335 4.66667 11.3335H6.66667C7.03485 11.3335 7.33333 11.632 7.33333 12.0002C7.33333 12.3684 7.03485 12.6668 6.66667 12.6668H4.66667C4.29848 12.6668 4 12.3684 4 12.0002Z" fill="#F3F3F3"/>
<path d="M7.28553 6.34321C7.02518 6.08286 6.60307 6.08286 6.34272 6.34321C6.08237 6.60356 6.08237 7.02567 6.34272 7.28602L7.75694 8.70023C8.01729 8.96058 8.4394 8.96058 8.69975 8.70023C8.96009 8.43988 8.96009 8.01777 8.69975 7.75742L7.28553 6.34321Z" fill="#F3F3F3"/>
</g>
</g>
<circle cx="12" cy="12" r="11.5" stroke="#F3F3F3"/>
<defs>
<clipPath id="clip0_1_3217">
<rect width="16" height="16" fill="white" transform="translate(4 4)"/>
</clipPath>
</defs>
</svg>
