<svg width="25" height="25" viewBox="0 0 25 25" fill="none" xmlns="http://www.w3.org/2000/svg">
<g clip-path="url(#clip0_1_3207)">
<path d="M3.49199 6.50547C5.28843 6.50547 6.74473 5.04917 6.74473 3.25273C6.74473 1.4563 5.28843 0 3.49199 0C1.69556 0 0.239258 1.4563 0.239258 3.25273C0.239258 5.04917 1.69556 6.50547 3.49199 6.50547Z" fill="#F3F3F3"/>
<path d="M12.4998 6.50547C14.2962 6.50547 15.7525 5.04917 15.7525 3.25273C15.7525 1.4563 14.2962 0 12.4998 0C10.7034 0 9.24707 1.4563 9.24707 3.25273C9.24707 5.04917 10.7034 6.50547 12.4998 6.50547Z" fill="#B5B5B5"/>
<path d="M21.5076 6.50547C23.3041 6.50547 24.7604 5.04917 24.7604 3.25273C24.7604 1.4563 23.3041 0 21.5076 0C19.7112 0 18.2549 1.4563 18.2549 3.25273C18.2549 5.04917 19.7112 6.50547 21.5076 6.50547Z" fill="#F3F3F3"/>
<path d="M3.49199 15.7525C5.28843 15.7525 6.74473 14.2962 6.74473 12.4998C6.74473 10.7034 5.28843 9.24707 3.49199 9.24707C1.69556 9.24707 0.239258 10.7034 0.239258 12.4998C0.239258 14.2962 1.69556 15.7525 3.49199 15.7525Z" fill="#B5B5B5"/>
<path d="M12.4998 15.7525C14.2962 15.7525 15.7525 14.2962 15.7525 12.4998C15.7525 10.7034 14.2962 9.24707 12.4998 9.24707C10.7034 9.24707 9.24707 10.7034 9.24707 12.4998C9.24707 14.2962 10.7034 15.7525 12.4998 15.7525Z" fill="#F3F3F3"/>
<path d="M21.5076 15.7525C23.3041 15.7525 24.7604 14.2962 24.7604 12.4998C24.7604 10.7034 23.3041 9.24707 21.5076 9.24707C19.7112 9.24707 18.2549 10.7034 18.2549 12.4998C18.2549 14.2962 19.7112 15.7525 21.5076 15.7525Z" fill="#B5B5B5"/>
<path d="M3.49199 25.0001C5.28843 25.0001 6.74473 23.5438 6.74473 21.7474C6.74473 19.9509 5.28843 18.4946 3.49199 18.4946C1.69556 18.4946 0.239258 19.9509 0.239258 21.7474C0.239258 23.5438 1.69556 25.0001 3.49199 25.0001Z" fill="#F3F3F3"/>
<path d="M12.4998 25.0001C14.2962 25.0001 15.7525 23.5438 15.7525 21.7474C15.7525 19.9509 14.2962 18.4946 12.4998 18.4946C10.7034 18.4946 9.24707 19.9509 9.24707 21.7474C9.24707 23.5438 10.7034 25.0001 12.4998 25.0001Z" fill="#B5B5B5"/>
<path d="M21.5076 25.0001C23.3041 25.0001 24.7604 23.5438 24.7604 21.7474C24.7604 19.9509 23.3041 18.4946 21.5076 18.4946C19.7112 18.4946 18.2549 19.9509 18.2549 21.7474C18.2549 23.5438 19.7112 25.0001 21.5076 25.0001Z" fill="#F3F3F3"/>
</g>
<defs>
<clipPath id="clip0_1_3207">
<rect width="25" height="25" fill="white"/>
</clipPath>
</defs>
</svg>
