<svg width="24" height="30" viewBox="0 0 24 30" fill="none" xmlns="http://www.w3.org/2000/svg">
<path d="M20.4375 3.75H15.75C15.75 1.68164 14.0684 0 12 0C9.93164 0 8.25 1.68164 8.25 3.75H3.5625C2.00977 3.75 0.75 5.00977 0.75 6.5625V27.1875C0.75 28.7402 2.00977 30 3.5625 30H20.4375C21.9902 30 23.25 28.7402 23.25 27.1875V6.5625C23.25 5.00977 21.9902 3.75 20.4375 3.75ZM12 2.34375C12.7793 2.34375 13.4062 2.9707 13.4062 3.75C13.4062 4.5293 12.7793 5.15625 12 5.15625C11.2207 5.15625 10.5938 4.5293 10.5938 3.75C10.5938 2.9707 11.2207 2.34375 12 2.34375ZM20.4375 26.8359C20.4375 27.0293 20.2793 27.1875 20.0859 27.1875H3.91406C3.7207 27.1875 3.5625 27.0293 3.5625 26.8359V6.91406C3.5625 6.7207 3.7207 6.5625 3.91406 6.5625H6.375V8.67188C6.375 9.05859 6.69141 9.375 7.07812 9.375H16.9219C17.3086 9.375 17.625 9.05859 17.625 8.67188V6.5625H20.0859C20.2793 6.5625 20.4375 6.7207 20.4375 6.91406V26.8359Z" fill="#131615"/>
</svg>
